<svg width="419" height="378" viewBox="0 0 419 378" fill="none" xmlns="http://www.w3.org/2000/svg">
<path d="M9.03453 189.526L8.77972 194.079C7.71355 194.159 6.79588 194.629 6.02672 195.487C5.25755 196.345 4.84 197.364 4.77406 198.542C4.66342 200.519 5.33841 202.059 6.79904 203.162C8.04784 204.114 9.71061 204.647 11.7874 204.763C13.7842 204.875 15.4463 204.528 16.7734 203.72C18.3292 202.766 19.1619 201.31 19.2714 199.353C19.3496 197.955 18.9635 196.802 18.1129 195.893C17.3189 195.047 16.1981 194.494 14.7504 194.233L15.0053 189.68C17.6477 190.068 19.7196 191.165 21.221 192.972C22.7035 194.758 23.3716 196.959 23.2252 199.575C23.0453 202.789 21.8228 205.305 19.5577 207.121C17.397 208.863 14.7192 209.645 11.5242 209.466C8.24929 209.283 5.62545 208.205 3.65263 206.231C1.58333 204.192 0.639201 201.556 0.82025 198.321C0.956595 195.884 1.74066 193.865 3.17244 192.263C4.6686 190.584 6.62263 189.671 9.03453 189.526Z" fill="black"/>
<path d="M16.6599 181.179C14.2253 180.707 12.4206 179.613 11.2457 177.898C10.0513 176.179 9.68449 174.132 10.1454 171.756C10.6101 169.361 11.7178 167.589 13.4684 166.442C15.1994 165.29 17.2822 164.951 19.7168 165.423C22.1318 165.892 23.9365 166.985 25.131 168.704C26.3058 170.42 26.6608 172.475 26.1961 174.87C25.7352 177.246 24.6392 179.009 22.9083 180.161C21.1576 181.308 19.0748 181.648 16.6599 181.179ZM17.4713 176.997C18.8653 177.268 20.026 177.218 20.9535 176.848C22.0963 176.418 22.7935 175.555 23.0449 174.259C23.5248 171.785 22.145 170.234 18.9054 169.605C15.6462 168.973 13.7766 169.894 13.2966 172.367C12.8205 174.822 14.212 176.365 17.4713 176.997Z" fill="black"/>
<path d="M29.0946 159.076L14.4746 153.898L15.8167 150.108L17.7962 150.809L17.8163 150.753C16.6266 149.08 16.3624 147.31 17.0234 145.444C17.7713 143.332 19.0861 142.196 20.9678 142.035C19.7271 140.386 19.4373 138.628 20.0984 136.762C21.3604 133.199 23.7353 132.035 27.223 133.27L37.0074 136.736L35.5851 140.751L27.2994 137.817C26.1117 137.396 25.2294 137.221 24.6524 137.293C23.828 137.404 23.2322 137.978 22.8649 139.015C22.2306 140.806 23.1482 142.139 25.6179 143.014L33.7621 145.898L32.3398 149.914L24.139 147.009C22.9136 146.575 22.0635 146.369 21.5887 146.392C20.6767 146.451 20.0237 147.037 19.6297 148.149C19.4094 148.771 19.4231 149.391 19.6709 150.009C20.0016 150.933 20.789 151.615 22.0333 152.056L30.5169 155.06L29.0946 159.076Z" fill="black"/>
<path d="M40.5394 128.793L27.0234 121.185L28.9953 117.682L30.8253 118.712L30.8547 118.659C29.9695 116.807 30.0125 115.018 30.9837 113.293C32.0825 111.341 33.5726 110.447 35.454 110.611C34.5144 108.773 34.5301 106.992 35.5013 105.267C37.3555 101.973 39.8947 101.233 43.119 103.048L52.1645 108.139L50.0749 111.852L42.415 107.54C41.317 106.922 40.4776 106.599 39.897 106.57C39.0657 106.539 38.3803 107.002 37.8407 107.961C36.9088 109.616 37.5844 111.087 39.8675 112.372L47.3967 116.61L45.3071 120.322L37.7257 116.055C36.5928 115.417 35.7905 115.069 35.3188 115.01C34.4102 114.911 33.6665 115.376 33.0877 116.405C32.764 116.98 32.6712 117.593 32.8093 118.245C32.9769 119.211 33.6358 120.018 34.786 120.666L42.629 125.08L40.5394 128.793Z" fill="black"/>
<path d="M57.4263 100.996L44.9189 91.8239L47.4381 88.3886L59.9455 97.5605L57.4263 100.996ZM42.6722 84.8936L45.5027 86.9693L42.9835 90.4046L40.153 88.329L42.6722 84.8936Z" fill="black"/>
<path d="M53.2728 73.7696L56.8039 76.7951L58.8339 74.4258L60.9981 76.2801L58.9681 78.6494L64.8002 83.6463C65.3469 84.1148 65.7895 84.336 66.1279 84.3099C66.4663 84.2838 66.8698 83.9974 67.3382 83.4506C67.6505 83.0861 67.9064 82.726 68.1059 82.3702L70.6347 84.5368C70.3202 85.0575 69.8182 85.7203 69.1285 86.5253C67.0074 89.0008 65.0128 89.4384 63.1447 87.8378L56.1964 81.8844L54.5177 83.8436L52.3535 81.9892L54.0321 80.03L50.501 77.0045L53.2728 73.7696Z" fill="black"/>
<path d="M65.2014 61.1556L68.4678 64.4652L70.6884 62.2735L72.6904 64.3019L70.4698 66.4936L75.8646 71.9597C76.3704 72.4721 76.793 72.7294 77.1324 72.7317C77.4718 72.7339 77.8977 72.4821 78.4102 71.9763C78.7518 71.6392 79.0368 71.3016 79.2653 70.9637L81.6045 73.3338C81.2477 73.8264 80.6921 74.445 79.9377 75.1896C77.6174 77.4796 75.5933 77.7492 73.8653 75.9984L67.4378 69.486L65.6016 71.2984L63.5996 69.2699L65.4358 67.4576L62.1694 64.1481L65.2014 61.1556Z" fill="black"/>
<path d="M94.0395 54.0365L85.3177 61.0469C87.0526 63.0139 88.8632 63.2393 90.7494 61.7231C91.3886 61.2094 91.8275 60.5743 92.0663 59.8179C92.3115 59.1333 92.3257 58.5445 92.1091 58.0515L95.0319 55.7021C96.3236 59.1287 95.5274 62.001 92.6436 64.3191C90.7573 65.8352 88.7832 66.4597 86.7211 66.1928C84.662 65.8976 82.8744 64.807 81.3583 62.9208C79.8798 61.0813 79.2271 59.1041 79.4003 56.9891C79.5765 54.846 80.5765 53.0414 82.4004 51.5754C84.3645 49.9967 86.4733 49.5077 88.7268 50.1084C90.802 50.6471 92.5729 51.9565 94.0395 54.0365ZM83.6262 58.9425L89.0276 54.6009C87.3375 53.1367 85.7676 52.9873 84.3179 54.1526C83.3826 54.9044 82.9161 55.7925 82.9185 56.817C82.9203 57.5854 83.1561 58.2939 83.6262 58.9425Z" fill="black"/>
<path d="M114.049 48.8865L113.007 47.203L112.956 47.2346C112.999 49.0898 112.085 50.5964 110.215 51.7545C108.327 52.9232 106.4 53.1164 104.434 52.3343C102.637 51.6356 101.133 50.3085 99.9226 48.3529C98.7435 46.4484 98.2575 44.5617 98.4646 42.6927C98.6726 40.635 99.6949 39.0377 101.531 37.9006C103.3 36.8057 105.015 36.6497 106.675 37.4327L106.701 37.4169L102.595 30.7851L106.217 28.5426L117.493 46.7545L114.049 48.8865ZM109.892 42.2863C109.145 41.0789 108.324 40.2465 107.429 39.7891C106.358 39.2757 105.279 39.356 104.19 40.0298C103.085 40.7141 102.529 41.6583 102.522 42.8625C102.498 43.8885 102.86 45.0051 103.608 46.2125C104.324 47.3688 105.174 48.1716 106.158 48.621C107.277 49.1748 108.363 49.1253 109.418 48.4726C111.492 47.1881 111.65 45.126 109.892 42.2863Z" fill="black"/>
<path d="M135.069 16.3184L136.781 20.642L139.682 19.4938L140.731 22.1437L137.83 23.292L140.656 30.433C140.921 31.1024 141.209 31.5046 141.521 31.6394C141.832 31.7742 142.323 31.7092 142.992 31.4442C143.439 31.2675 143.833 31.0684 144.175 30.8468L145.401 33.9431C144.88 34.2569 144.127 34.6089 143.141 34.999C140.11 36.1987 138.141 35.6549 137.236 33.3676L133.869 24.8598L131.47 25.8093L130.421 23.1593L132.82 22.2098L131.108 17.8862L135.069 16.3184Z" fill="black"/>
<path d="M149.511 24.1679C148.844 21.7794 149.014 19.6759 150.022 17.8576C151.024 16.0201 152.691 14.7756 155.021 14.1244C157.371 13.4677 159.451 13.6652 161.261 14.717C163.065 15.7495 164.301 17.46 164.969 19.8485C165.631 22.2177 165.461 24.3211 164.458 26.1587C163.45 27.977 161.771 29.2145 159.421 29.8711C157.091 30.5224 155.023 30.3318 153.219 29.2993C151.409 28.2476 150.173 26.5371 149.511 24.1679ZM153.614 23.0214C153.996 24.389 154.56 25.4047 155.306 26.0683C156.202 26.8977 157.286 27.1348 158.558 26.7796C160.985 26.1014 161.754 24.1732 160.866 20.9949C159.972 17.7974 158.312 16.5377 155.885 17.2159C153.477 17.8887 152.72 19.8239 153.614 23.0214Z" fill="black"/>
<path d="M208.761 21.8802L206.716 24.3196L203.524 21.7496C202.118 22.6771 200.416 23.2019 198.42 23.324C195.206 23.5205 192.565 22.5999 190.497 20.5624C188.515 18.6197 187.426 16.0514 187.231 12.8573C187.03 9.58344 187.795 6.85168 189.525 4.66205C191.308 2.36895 193.817 1.12354 197.051 0.925814C200.285 0.728092 202.926 1.65861 204.976 3.71738C206.959 5.68 208.051 8.29825 208.251 11.5721C208.444 14.7262 207.676 17.4081 205.948 19.6177L208.761 21.8802ZM197.929 17.2527L199.972 14.7834L202.533 16.851C203.337 15.5795 203.676 13.9157 203.55 11.8596C203.423 9.78344 202.881 8.12344 201.923 6.87957C200.812 5.42465 199.269 4.7576 197.292 4.87843C195.316 4.99926 193.865 5.84938 192.94 7.4288C192.141 8.78008 191.805 10.4938 191.932 12.5699C192.054 14.5662 192.593 16.1763 193.55 17.4002C194.679 18.8339 196.222 19.491 198.178 19.3714C199.217 19.3079 199.839 19.1696 200.047 18.9566L197.929 17.2527Z" fill="black"/>
<path d="M232.489 8.03608L231.332 23.5029L227.294 23.2008L227.455 21.0468L227.365 21.0401C226.18 22.6762 224.54 23.416 222.446 23.2593C220.312 23.0997 218.85 22.3987 218.06 21.1563C217.376 20.1224 217.112 18.5583 217.268 16.4642L217.98 6.95076L222.228 7.26852L221.575 16.0041C221.385 18.537 222.198 19.8714 224.013 20.0071C225.17 20.0937 226.033 19.8073 226.604 19.148C227.175 18.4888 227.518 17.3813 227.635 15.8257L228.241 7.71831L232.489 8.03608Z" fill="black"/>
<path d="M249.907 20.5475L250.214 18.9876C249.823 19.2161 249.052 19.2986 247.903 19.235C246.589 19.1797 245.708 19.1997 245.261 19.295C244.364 19.5053 243.828 20.0519 243.654 20.9349C243.398 22.23 244.124 23.0458 245.831 23.3825C248.088 23.8276 249.446 22.8826 249.907 20.5475ZM245.349 14.8174L241.17 13.9931C241.644 12.2111 242.702 11.0335 244.343 10.4604C245.703 9.97434 247.364 9.9248 249.326 10.3118C253.781 11.1903 255.723 13.0717 255.154 15.9562L253.593 23.8737C253.26 25.5612 253.214 26.7242 253.455 27.3629L249.217 26.527C249.148 25.9428 249.147 25.4329 249.213 24.9973C247.768 26.0171 245.937 26.3083 243.72 25.871C242.189 25.5691 241.036 24.9544 240.261 24.0269C239.419 23.025 239.145 21.7785 239.439 20.2872C239.745 18.7371 240.513 17.6858 241.743 17.1334C242.632 16.7584 243.895 16.6099 245.531 16.6879C247.849 16.819 249.03 16.8786 249.073 16.8667C250.124 16.809 250.723 16.4073 250.87 15.6617C251.033 14.8375 250.87 14.2143 250.383 13.792C250.037 13.4791 249.432 13.2376 248.569 13.0673C246.862 12.7306 245.789 13.314 245.349 14.8174Z" fill="black"/>
<path d="M261.466 29.5719L267.564 9.03827L271.648 10.2511L265.55 30.7847L261.466 29.5719Z" fill="black"/>
<path d="M273.597 33.4655L279.011 18.931L283.003 20.418L277.589 34.9525L273.597 33.4655ZM285.066 14.8797L283.841 18.1689L279.849 16.682L281.074 13.3927L285.066 14.8797Z" fill="black"/>
<path d="M298.659 22.0443L296.711 26.2666L299.544 27.5737L298.35 30.1615L295.517 28.8545L292.299 35.8282C291.998 36.482 291.906 36.9681 292.023 37.2865C292.14 37.605 292.526 37.9151 293.18 38.2167C293.616 38.4177 294.032 38.5657 294.429 38.6607L293.034 41.6844C292.447 41.5239 291.672 41.2216 290.71 40.7775C287.75 39.4119 286.785 37.6122 287.815 35.3784L291.648 27.07L289.306 25.9892L290.5 23.4013L292.842 24.4821L294.79 20.2598L298.659 22.0443Z" fill="black"/>
<path d="M319.423 38.6111L305.019 50.4169C303.986 51.2727 302.98 51.7268 301.999 51.7794C301.019 51.8319 299.899 51.4899 298.638 50.7533C297.964 50.3598 297.239 49.8777 296.46 49.307L298.231 46.2765C299.466 47.1368 300.157 47.5988 300.305 47.6622C301.295 48.1481 302.098 47.8644 302.714 46.811C302.885 46.5175 302.995 46.2109 303.043 45.8913L305.669 30.5742L309.606 32.8748L307.279 43.8149L307.331 43.8452L315.615 36.3862L319.423 38.6111Z" fill="black"/>
<path d="M317.103 55.8412L319.788 52.0815L323.621 54.8189L320.936 58.5785L317.103 55.8412Z" fill="black"/>
<path d="M362.012 76.6718L358.844 73.3915C359.51 72.5545 359.789 71.5622 359.682 70.4146C359.574 69.267 359.111 68.2688 358.291 67.42C356.916 65.9957 355.327 65.4446 353.525 65.7667C351.979 66.0366 350.457 66.8941 348.961 68.3389C347.522 69.7282 346.648 71.1839 346.339 72.7061C345.982 74.4962 346.485 76.0962 347.846 77.5061C348.819 78.5133 349.927 79.0135 351.172 79.007C352.332 78.999 353.5 78.5527 354.675 77.668L357.842 80.9482C355.762 82.6233 353.549 83.3979 351.204 83.2721C348.886 83.1467 346.817 82.1416 344.997 80.2569C342.761 77.9406 341.745 75.3344 341.952 72.4384C342.142 69.6695 343.387 67.1736 345.689 64.9507C348.049 62.6723 350.623 61.4797 353.411 61.3729C356.313 61.2397 358.889 62.3385 361.14 64.6692C362.835 66.4245 363.784 68.3718 363.987 70.5111C364.202 72.7497 363.544 74.8032 362.012 76.6718Z" fill="black"/>
<path d="M362.956 87.9384C364.957 86.4729 366.985 85.8919 369.042 86.1951C371.115 86.4866 372.866 87.6085 374.296 89.5608C375.738 91.5292 376.285 93.5455 375.938 95.6097C375.607 97.6621 374.441 99.421 372.44 100.886C370.455 102.34 368.427 102.921 366.354 102.63C364.297 102.326 362.548 101.191 361.106 99.2222C359.676 97.2699 359.127 95.2676 359.458 93.2152C359.805 91.151 360.971 89.3921 362.956 87.9384ZM365.473 91.3751C364.328 92.2142 363.576 93.0997 363.217 94.0318C362.756 95.1626 362.916 96.2605 363.696 97.3254C365.185 99.3583 367.261 99.3998 369.923 97.4498C372.601 95.488 373.196 93.4906 371.707 91.4576C370.229 89.4408 368.152 89.4133 365.473 91.3751Z" fill="black"/>
<path d="M370.727 112.079L384.459 104.87L386.328 108.429L384.469 109.405L384.496 109.458C386.532 109.722 388.011 110.731 388.931 112.484C389.972 114.467 389.912 116.204 388.752 117.694C390.805 117.904 392.291 118.886 393.212 120.639C394.969 123.986 394.209 126.519 390.933 128.239L381.743 133.063L379.763 129.291L387.545 125.206C388.661 124.62 389.389 124.091 389.728 123.619C390.207 122.939 390.19 122.112 389.679 121.138C388.796 119.456 387.194 119.223 384.875 120.441L377.225 124.457L375.245 120.685L382.948 116.641C384.099 116.037 384.827 115.553 385.133 115.189C385.71 114.48 385.724 113.603 385.175 112.558C384.868 111.974 384.404 111.563 383.782 111.324C382.88 110.94 381.844 111.054 380.675 111.668L372.707 115.851L370.727 112.079Z" fill="black"/>
<path d="M385.171 141.052L399.936 136.304L401.167 140.131L399.168 140.774L399.186 140.831C401.147 141.44 402.43 142.687 403.036 144.572C403.722 146.704 403.366 148.405 401.967 149.674C403.954 150.233 405.25 151.455 405.856 153.34C407.013 156.938 405.831 159.304 402.309 160.437L392.427 163.614L391.123 159.559L399.491 156.868C400.69 156.482 401.498 156.086 401.913 155.679C402.501 155.091 402.627 154.273 402.29 153.226C401.708 151.417 400.17 150.914 397.676 151.716L389.451 154.361L388.147 150.306L396.429 147.642C397.667 147.244 398.467 146.892 398.831 146.586C399.521 145.986 399.685 145.125 399.323 144.001C399.121 143.373 398.734 142.888 398.162 142.547C397.34 142.013 396.3 141.948 395.043 142.352L386.475 145.108L385.171 141.052Z" fill="black"/>
<path d="M394.094 172.328L409.322 169.383L410.131 173.565L394.904 176.511L394.094 172.328ZM415.934 172.443L412.488 173.109L411.678 168.927L415.125 168.26L415.934 172.443Z" fill="black"/>
<path d="M416.893 187.779L412.274 188.314L412.633 191.414L409.802 191.742L409.443 188.643L401.814 189.527C401.099 189.61 400.636 189.784 400.425 190.05C400.214 190.316 400.15 190.807 400.233 191.522C400.288 191.999 400.379 192.431 400.504 192.819L397.196 193.203C397.028 192.618 396.883 191.8 396.761 190.747C396.385 187.508 397.42 185.748 399.863 185.464L408.952 184.411L408.655 181.848L411.486 181.52L411.783 184.083L416.402 183.547L416.893 187.779Z" fill="black"/>
<path d="M418.043 205.102L413.396 205.25L413.495 208.369L410.646 208.46L410.547 205.341L402.871 205.586C402.151 205.609 401.675 205.744 401.443 205.992C401.211 206.239 401.106 206.723 401.129 207.442C401.145 207.922 401.199 208.361 401.291 208.758L397.963 208.864C397.844 208.268 397.767 207.44 397.734 206.38C397.63 203.122 398.807 201.453 401.266 201.375L410.411 201.083L410.329 198.505L413.178 198.414L413.26 200.993L417.908 200.844L418.043 205.102Z" fill="black"/>
<path d="M403.674 231.098L404.455 219.936C401.833 219.872 400.438 221.048 400.269 223.462C400.211 224.28 400.379 225.033 400.772 225.723C401.108 226.368 401.53 226.778 402.039 226.954L401.777 230.695C398.385 229.315 396.819 226.779 397.077 223.088C397.246 220.674 398.129 218.801 399.726 217.469C401.342 216.159 403.356 215.588 405.771 215.757C408.125 215.922 410.019 216.787 411.453 218.351C412.906 219.936 413.551 221.896 413.387 224.23C413.211 226.744 412.137 228.624 410.165 229.869C408.36 231.026 406.196 231.435 403.674 231.098ZM407.149 220.124L406.665 227.037C408.887 226.792 410.063 225.742 410.193 223.886C410.277 222.689 409.942 221.744 409.189 221.049C408.624 220.528 407.944 220.22 407.149 220.124Z" fill="black"/>
<path d="M393.858 249.28L395.802 249.659L395.813 249.6C394.423 248.371 393.938 246.677 394.359 244.518C394.784 242.339 395.951 240.794 397.861 239.882C399.595 239.038 401.59 238.837 403.848 239.277C406.046 239.706 407.761 240.631 408.991 242.053C410.36 243.603 410.837 245.439 410.424 247.559C410.026 249.6 408.975 250.965 407.272 251.651L407.267 251.681L414.922 253.174L414.107 257.355L393.083 253.255L393.858 249.28ZM401.526 250.714C402.919 250.986 404.088 250.949 405.032 250.603C406.136 250.166 406.81 249.32 407.055 248.063C407.304 246.787 406.989 245.738 406.11 244.914C405.374 244.2 404.308 243.707 402.914 243.435C401.58 243.175 400.413 243.253 399.415 243.67C398.248 244.115 397.546 244.946 397.309 246.163C396.842 248.558 398.247 250.075 401.526 250.714Z" fill="black"/>
<path d="M403.473 286.83L399.138 285.148L398.01 288.057L395.353 287.026L396.481 284.117L389.321 281.34C388.65 281.079 388.159 281.017 387.848 281.154C387.538 281.291 387.252 281.695 386.992 282.367C386.818 282.814 386.696 283.239 386.626 283.641L383.522 282.436C383.646 281.841 383.899 281.049 384.283 280.061C385.462 277.021 387.198 275.947 389.491 276.836L398.022 280.146L398.955 277.74L401.612 278.771L400.679 281.177L405.014 282.859L403.473 286.83Z" fill="black"/>
<path d="M387.902 292.095C390.108 293.228 391.536 294.782 392.185 296.757C392.852 298.741 392.633 300.809 391.528 302.962C390.413 305.132 388.855 306.524 386.853 307.138C384.87 307.76 382.775 307.505 380.569 306.372C378.381 305.248 376.953 303.694 376.286 301.71C375.636 299.735 375.869 297.662 376.984 295.492C378.089 293.339 379.634 291.952 381.618 291.329C383.619 290.716 385.714 290.971 387.902 292.095ZM385.956 295.884C384.693 295.236 383.564 294.96 382.57 295.056C381.353 295.15 380.442 295.784 379.839 296.959C378.688 299.2 379.58 301.075 382.515 302.583C385.469 304.099 387.521 303.737 388.672 301.495C389.814 299.272 388.909 297.401 385.956 295.884Z" fill="black"/>
<path d="M358.21 325.749L364.705 330.981L379.841 333.041L376.51 337.177L366.779 335.771L370.243 344.957L366.95 349.045L361.657 334.574L355.255 329.417L358.21 325.749Z" fill="black"/>
<path d="M351.224 345.845C352.936 347.639 353.776 349.575 353.741 351.654C353.721 353.747 352.836 355.629 351.086 357.3C349.321 358.985 347.392 359.789 345.3 359.712C343.222 359.65 341.327 358.722 339.615 356.928C337.916 355.148 337.077 353.212 337.097 351.119C337.131 349.04 338.031 347.159 339.795 345.474C341.546 343.803 343.46 342.998 345.538 343.061C347.63 343.137 349.525 344.066 351.224 345.845ZM348.143 348.787C347.162 347.759 346.186 347.129 345.216 346.894C344.035 346.584 342.967 346.884 342.012 347.796C340.189 349.536 340.417 351.599 342.696 353.986C344.989 356.388 347.046 356.718 348.869 354.978C350.677 353.252 350.435 351.188 348.143 348.787Z" fill="black"/>
<path d="M325.743 377.588L316.486 365.144L319.736 362.727L321.025 364.46L321.097 364.406C320.921 362.393 321.676 360.76 323.361 359.507C325.078 358.23 326.641 357.802 328.052 358.223C329.246 358.556 330.47 359.565 331.724 361.25L337.417 368.905L333.999 371.447L328.771 364.418C327.255 362.38 325.767 361.904 324.307 362.991C323.376 363.683 322.911 364.465 322.911 365.337C322.912 366.209 323.378 367.271 324.309 368.523L329.161 375.046L325.743 377.588Z" fill="black"/>
<path d="M309.502 369.573L311.889 373.529L307.857 375.962L305.47 372.007L309.502 369.573Z" fill="black"/>
</svg>
