<?xml version="1.0" encoding="utf-8"?>
<!-- Generator: Adobe Illustrator 24.1.2, SVG Export Plug-In . SVG Version: 6.00 Build 0)  -->
<svg version="1.1" id="Слой_1" xmlns="http://www.w3.org/2000/svg" xmlns:xlink="http://www.w3.org/1999/xlink" width="27" height="27" x="0px" y="0px"
	 viewBox="0 0 27 27" style="enable-background:new 0 0 27 27;" xml:space="preserve">
<style type="text/css">
	.st0{fill:#161616;}
</style>
<path class="st0" d="M27,8.4v10.1c0,4.7-3.8,8.4-8.4,8.4H8.4C3.8,27,0,23.2,0,18.6V8.4C0,3.8,3.8,0,8.4,0h10.1C23.2,0,27,3.8,27,8.4
	z M8.4,2.5c-3.3,0-5.9,2.6-5.9,5.9v10.1c0,3.3,2.6,5.9,5.9,5.9h10.1c3.3,0,5.9-2.6,5.9-5.9V8.4c0-3.3-2.6-5.9-5.9-5.9H8.4z"/>
<path class="st0" d="M20.3,13.5c0,3.7-3,6.8-6.8,6.8c-3.7,0-6.8-3-6.8-6.8c0-3.7,3-6.8,6.8-6.8C17.2,6.8,20.3,9.8,20.3,13.5z
	 M9.3,13.5c0,2.3,1.9,4.2,4.2,4.2c2.3,0,4.2-1.9,4.2-4.2s-1.9-4.2-4.2-4.2C11.2,9.3,9.3,11.2,9.3,13.5z"/>
<path class="st0" d="M19.9,6.2c0-0.5,0.4-0.9,0.9-0.9c0.5,0,0.9,0.4,0.9,0.9c0,0.5-0.4,0.9-0.9,0.9C20.3,7.1,19.9,6.7,19.9,6.2z"/>
</svg>
