<svg width="137" height="137" viewBox="0 0 137 137" fill="none" xmlns="http://www.w3.org/2000/svg">
<path d="M58.4431 56.0084C56.9846 57.0403 55.7348 58.3392 54.7599 59.8364C54.6447 60.013 54.5654 60.2106 54.5265 60.4178C54.4877 60.625 54.49 60.8379 54.5334 61.0442C54.5768 61.2505 54.6604 61.4463 54.7795 61.6203C54.8986 61.7943 55.0507 61.9432 55.2273 62.0584C55.4039 62.1736 55.6015 62.2529 55.8087 62.2917C56.0159 62.3306 56.2288 62.3282 56.4351 62.2848C56.6415 62.2414 56.8372 62.1578 57.0112 62.0387C57.1852 61.9197 57.3341 61.7675 57.4493 61.5909C58.2036 60.4317 59.1709 59.426 60.2998 58.627C60.6441 58.3795 60.8765 58.006 60.9464 57.5878C61.0163 57.1696 60.9179 56.7408 60.6727 56.3949C60.4275 56.049 60.0555 55.8141 59.6378 55.7415C59.2201 55.6689 58.7906 55.7645 58.4431 56.0074V56.0084Z" fill="#161616"/>
<path d="M29.3667 124.854H17.5986V51.3068C17.5986 51.2801 17.6024 51.2554 17.6024 51.2292C17.6024 38.5318 27.3979 28.2017 39.4381 28.2017C51.0127 28.2017 60.508 37.7505 61.2248 49.7698C57.7848 50.1788 54.6139 51.834 52.3116 54.4225C50.0094 57.0111 48.7354 60.3535 48.7305 63.8177V66.3262C48.7305 66.752 48.8997 67.1604 49.2008 67.4615C49.5018 67.7626 49.9102 67.9317 50.336 67.9317H57.4803C58.1899 70.5005 60.4847 72.3979 63.1723 72.3979C65.8598 72.3979 68.1543 70.5015 68.8636 67.9317H75.4217C75.8475 67.9317 76.2559 67.7626 76.5569 67.4615C76.858 67.1604 77.0272 66.752 77.0272 66.3262V63.8177C77.0226 60.3379 75.7374 56.9815 73.4168 54.3884C71.0961 51.7954 67.9023 50.1472 64.4443 49.7581C63.7136 35.9716 52.7779 24.9902 39.4383 24.9902C25.6736 24.9902 14.4679 36.6834 14.393 51.0847C14.3904 51.1219 14.3874 51.1591 14.3874 51.1968V124.853H4.28125C3.85545 124.853 3.4471 125.022 3.14601 125.323C2.84493 125.624 2.67578 126.033 2.67578 126.459C2.67578 126.884 2.84493 127.293 3.14601 127.594C3.4471 127.895 3.85545 128.064 4.28125 128.064H29.3667C29.7925 128.064 30.2009 127.895 30.5019 127.594C30.803 127.293 30.9722 126.884 30.9722 126.459C30.9722 126.033 30.803 125.624 30.5019 125.323C30.2009 125.022 29.7925 124.853 29.3667 124.853V124.854ZM63.172 69.1874C62.727 69.1803 62.291 69.0617 61.9038 68.8424C61.5166 68.6231 61.1906 68.3102 60.9556 67.9322H65.3881C65.1531 68.3101 64.8272 68.623 64.44 68.8423C64.0529 69.0616 63.6169 69.1803 63.172 69.1874ZM73.816 63.8177V64.7208H51.9415V63.8177C51.9415 60.9169 53.0938 58.135 55.1449 56.0839C57.196 54.0328 59.978 52.8804 62.8787 52.8804C65.7795 52.8804 68.5614 54.0328 70.6125 56.0839C72.6637 58.135 73.816 60.9169 73.816 63.8177Z" fill="#161616"/>
<path d="M126.742 100.047V89.4244C126.726 87.6328 126.001 85.9206 124.724 84.6636C123.447 83.4065 121.724 82.7071 119.932 82.7189H90.5538C89.6593 82.7144 88.7729 82.8878 87.946 83.229C87.1192 83.5702 86.3684 84.0724 85.7374 84.7065C85.6052 84.8402 85.4808 84.9778 85.3612 85.1196C84.7177 84.3653 83.9179 83.76 83.0172 83.3454C82.1166 82.9309 81.1365 82.7171 80.145 82.7189H50.5996C48.8079 82.7071 47.0847 83.4065 45.808 84.6635C44.5313 85.9206 43.8052 87.6328 43.7892 89.4244V100.078C41.8675 100.248 40.0779 101.127 38.7693 102.545C37.4607 103.962 36.7268 105.817 36.7107 107.746V126.459C36.7107 126.885 36.8798 127.294 37.1809 127.595C37.482 127.896 37.8904 128.065 38.3162 128.065H50.7636C51.1894 128.065 51.5978 127.896 51.8989 127.595C52.2 127.294 52.3691 126.885 52.3691 126.459V124.321L118.667 124.341V126.459C118.667 126.885 118.836 127.294 119.137 127.595C119.438 127.896 119.846 128.065 120.272 128.065H132.719C133.145 128.065 133.553 127.896 133.855 127.595C134.156 127.294 134.325 126.885 134.325 126.459V107.745C134.307 105.729 133.505 103.799 132.091 102.362C130.676 100.926 128.758 100.096 126.742 100.047ZM88.0118 86.9718C88.3452 86.638 88.7417 86.3739 89.1781 86.1948C89.6144 86.0156 90.0821 85.925 90.5538 85.9282H119.932C120.873 85.9156 121.78 86.2764 122.454 86.9315C123.129 87.5866 123.516 88.4825 123.532 89.4228V100.615C122.103 101.184 120.876 102.166 120.009 103.436C119.142 104.706 118.675 106.206 118.667 107.744V108.373L86.9635 108.365L86.9675 89.5844C86.9597 89.1014 87.048 88.6217 87.2273 88.1732C87.4066 87.7247 87.6733 87.3163 88.0118 86.9718ZM50.5996 85.9282H80.1445C81.0851 85.9156 81.9923 86.2767 82.667 86.9321C83.3418 87.5875 83.729 88.4838 83.7437 89.4244L83.7509 108.364L52.3691 108.356V107.745C52.3591 106.116 51.8345 104.532 50.8703 103.219C49.906 101.905 48.5515 100.93 47.0001 100.433V89.4244C47.0151 88.484 47.4025 87.5879 48.0773 86.9326C48.752 86.2773 49.6591 85.9164 50.5996 85.929V85.9282ZM49.1582 124.852H39.9216V107.745C39.9546 106.542 40.4557 105.399 41.3182 104.56C42.1807 103.721 43.3365 103.252 44.5399 103.252C45.7432 103.252 46.8991 103.721 47.7616 104.56C48.6241 105.399 49.1251 106.542 49.1582 107.745V124.852ZM52.3691 121.108V111.566L85.3556 111.575H85.358L118.666 111.585V121.129L52.3691 121.108ZM131.114 124.853H121.878V107.745C121.909 106.541 122.41 105.397 123.272 104.557C124.135 103.717 125.292 103.247 126.496 103.247C127.7 103.247 128.856 103.717 129.719 104.557C130.582 105.397 131.082 106.541 131.114 107.745V124.853Z" fill="#161616"/>
</svg>
