<svg width="84" height="84" viewBox="0 0 84 84" fill="none" xmlns="http://www.w3.org/2000/svg">
<g clip-path="url(#clip0)">
<path d="M84.0001 23.8001C83.9939 18.3902 79.6099 14.0062 74.2001 14.0001H32.2001C31.3405 13.997 30.4847 14.1143 29.6577 14.3487C29.1341 14.4747 15.3049 19.6883 7.10787 22.7837H7.09667C5.49904 23.2295 4.04519 24.0841 2.87847 25.2631C1.02514 27.0942 -0.0124137 29.5947 7.06284e-05 32.2001C0.0023946 35.6443 1.81418 38.8341 4.77127 40.6001C1.81542 42.3672 0.00406809 45.5562 7.06284e-05 49.0001C0.00554082 52.4453 1.81973 55.6346 4.77827 57.4001C0.992114 59.6566 -0.819312 64.1651 0.353043 68.4139C1.5254 72.6628 5.39245 75.6043 9.80007 75.6001H51.8001C53.2485 75.5988 54.6783 75.2736 55.9847 74.6481C55.9949 74.6487 56.0052 74.6487 56.0155 74.6481L78.5401 66.1879C81.7569 64.6031 83.8481 61.3847 83.9892 57.8015C84.1302 54.2183 82.2985 50.8454 79.2163 49.0127C79.9149 48.6078 80.555 48.1094 81.1189 47.5315C82.9719 45.7021 84.0103 43.2039 84.0001 40.6001C83.9878 37.1599 82.177 33.9768 79.2261 32.2085C79.9216 31.8038 80.5593 31.307 81.1217 30.7315C82.9736 28.9017 84.0111 26.4035 84.0001 23.8001ZM30.4291 17.0395C31.0055 16.8783 31.6015 16.7978 32.2001 16.8001H74.2001C78.0642 16.8047 81.1955 19.936 81.2001 23.8001C81.2087 25.6579 80.4683 27.4409 79.1463 28.7463C78.6706 29.2413 78.1138 29.6514 77.4999 29.9587C77.4243 29.9993 77.3599 30.0371 77.2885 30.0735C75.3999 30.7735 72.0749 32.0223 66.9215 33.9571L60.6999 36.2937C62.0985 33.2604 61.8547 29.7234 60.053 26.9108C58.2513 24.0981 55.1403 22.3978 51.8001 22.4001H16.0609C23.0315 19.7751 29.8593 17.2201 30.4291 17.0395ZM2.80007 32.2001C2.79209 30.3389 3.53506 28.5531 4.86087 27.2469C5.7071 26.3877 6.76831 25.7713 7.93387 25.4619C7.96887 25.4507 8.00947 25.4381 8.05007 25.4227C8.62131 25.273 9.20956 25.1982 9.80007 25.2001H51.8001C55.6642 25.2047 58.7955 28.336 58.8001 32.2001C58.7899 34.8193 57.3282 37.2169 55.0047 38.4259C54.9637 38.4416 54.9235 38.4593 54.8843 38.4791C53.927 38.958 52.8705 39.205 51.8001 39.2001H9.80007C5.936 39.1954 2.8047 36.0641 2.80007 32.2001ZM2.80007 49.0001C2.80701 45.1369 5.93695 42.007 9.80007 42.0001H51.8001C55.6642 42.0047 58.7955 45.136 58.8001 49.0001C58.7899 51.6193 57.3282 54.0169 55.0047 55.2259C54.9637 55.2416 54.9235 55.2593 54.8843 55.2791C53.927 55.758 52.8705 56.005 51.8001 56.0001H9.80007C5.936 55.9954 2.8047 52.8641 2.80007 49.0001ZM9.80007 72.8001C5.93408 72.8001 2.80007 69.6661 2.80007 65.8001C2.80007 61.9341 5.93408 58.8001 9.80007 58.8001H51.8001C55.6661 58.8001 58.8001 61.9341 58.8001 65.8001C58.8001 69.6661 55.6661 72.8001 51.8001 72.8001H9.80007ZM81.2001 57.4001C81.2086 59.2576 80.4688 61.0404 79.1477 62.3463C78.6443 62.8559 78.066 63.2855 77.4327 63.6203L60.6901 69.8993C62.7763 65.4158 61.175 60.0805 56.9647 57.4869L75.4447 50.5541C78.7648 51.1465 81.1869 54.0275 81.2001 57.4001ZM81.2001 40.6001C81.2087 42.4579 80.4683 44.2409 79.1463 45.5463C78.6706 46.0413 78.1138 46.4514 77.4999 46.7587C77.4229 46.8007 77.3501 46.8385 77.2857 46.8749L60.6985 53.0951C62.772 48.61 61.169 43.2829 56.9647 40.6869L67.9001 36.5793C71.0949 35.3795 73.5771 34.4471 75.4601 33.7429C78.7744 34.3493 81.1864 37.2308 81.2001 40.6001Z" fill="#161616"/>
<path d="M54.6001 32.1998C54.6001 31.4266 53.9733 30.7998 53.2001 30.7998H8.40012C7.62692 30.7998 7.00012 31.4266 7.00012 32.1998C7.00012 32.973 7.62692 33.5998 8.40012 33.5998H53.2001C53.9733 33.5998 54.6001 32.973 54.6001 32.1998Z" fill="#161616"/>
<path d="M54.6001 49.0006C54.6001 48.2274 53.9733 47.6006 53.2001 47.6006H8.40012C7.62692 47.6006 7.00012 48.2274 7.00012 49.0006C7.00012 49.7738 7.62692 50.4006 8.40012 50.4006H53.2001C53.9733 50.4006 54.6001 49.7738 54.6001 49.0006Z" fill="#161616"/>
<path d="M53.2001 64.4004H8.40012C7.62692 64.4004 7.00012 65.0272 7.00012 65.8004C7.00012 66.5736 7.62692 67.2004 8.40012 67.2004H53.2001C53.9733 67.2004 54.6001 66.5736 54.6001 65.8004C54.6001 65.0272 53.9733 64.4004 53.2001 64.4004Z" fill="#161616"/>
</g>
<defs>
<clipPath id="clip0">
<rect width="84" height="84" fill="white"/>
</clipPath>
</defs>
</svg>
