<svg width="96" height="96" viewBox="0 0 96 96" fill="none" xmlns="http://www.w3.org/2000/svg">
<g clip-path="url(#clip0)">
<path d="M89.8332 1.44431C87.848 -0.538125 84.4891 -0.435375 82.6492 1.66275L68.7339 17.3781C66.6607 15.4774 64.1142 14.0852 61.2922 13.4057C60.5418 9.82444 58.6351 6.5625 55.8487 4.13869C52.7806 1.46981 48.8493 0 44.7789 0C40.754 0 36.8564 1.44056 33.8039 4.05638C31.0869 6.38456 29.1866 9.51338 28.3655 12.9606C24.8804 13.131 21.6012 14.3471 18.8356 16.5075C18.2236 16.9856 18.1151 17.8693 18.5932 18.4813C19.0711 19.0929 19.955 19.2021 20.567 18.7238C23.0576 16.7782 26.0486 15.75 29.2164 15.75C34.4907 15.75 39.3374 18.7341 41.7329 23.4011C40.9175 25.3789 40.4664 27.5439 40.4664 29.8125C40.4664 30.5222 40.5121 31.2298 40.5999 31.9298H15.3132C15.2081 31.2323 15.1541 30.5239 15.1541 29.8125C15.1541 27.5443 15.7064 25.2911 16.7514 23.2969C17.1117 22.6089 16.8462 21.759 16.1583 21.3984C15.4706 21.0382 14.6204 21.3036 14.2599 21.9915C13.0047 24.387 12.3414 27.0915 12.3414 29.8125C12.3414 30.5222 12.3871 31.2298 12.4749 31.9298H9.4353C6.85062 31.9298 4.7478 34.0326 4.7478 36.6173C4.7478 38.6319 6.02561 40.3536 7.81305 41.0151V41.1246C7.81305 57.9692 19.6177 72.1076 35.3883 75.7046C35.3889 76.9761 35.2865 78.2514 35.0793 79.5099C34.6691 82.0061 33.8622 84.3954 32.6808 86.6248H23.4978C20.9131 86.6248 18.8103 88.7276 18.8103 91.3123C18.8103 93.897 20.9131 95.9998 23.4978 95.9998H63.0601C65.6448 95.9998 67.7476 93.897 67.7476 91.3123C67.7476 88.7276 65.6448 86.6248 63.0601 86.6248H53.8231C52.448 84.3506 51.5249 81.7901 51.1452 79.1736C50.9819 78.0413 50.9182 76.8951 50.9525 75.7536C59.7785 73.8032 67.6171 68.5273 72.7692 60.8329C73.2014 60.1877 73.0286 59.3139 72.3832 58.8819C71.7376 58.4501 70.8643 58.6228 70.4323 59.2682C64.3486 68.3539 54.1979 73.7783 43.2791 73.7783C25.3342 73.7783 10.7255 59.2275 10.628 41.3049H75.9303C75.9071 45.6501 75.0461 49.8649 73.367 53.8346C73.0646 54.5499 73.3991 55.3751 74.1144 55.6776C74.8141 55.9734 75.6511 55.6545 75.9573 54.9304C77.807 50.5569 78.7449 45.9122 78.7449 41.1249V41.0154C80.5325 40.3539 81.8101 38.6323 81.8101 36.6176C81.8101 34.0329 79.7073 31.9301 77.1226 31.9301H74.0831C74.1708 31.23 74.2166 30.5226 74.2166 29.8129C74.2166 27.54 73.7632 25.3717 72.9449 23.391L89.6167 8.62969C91.7197 6.78244 91.7973 3.40556 89.8332 1.44431ZM53.0441 89.4375C53.045 89.4375 53.0461 89.4377 53.0471 89.4377C53.048 89.4377 53.0487 89.4375 53.0497 89.4375H63.0601C64.094 89.4375 64.9351 90.2786 64.9351 91.3125C64.9351 92.3464 64.094 93.1875 63.0601 93.1875H23.4978C22.4639 93.1875 21.6228 92.3464 21.6228 91.3125C21.6228 90.2786 22.4639 89.4375 23.4978 89.4375H33.5081C33.509 89.4375 33.5099 89.4377 33.5109 89.4377C33.5118 89.4377 33.5127 89.4375 33.5137 89.4375H53.0441ZM37.8545 79.9663C38.0581 78.729 38.1704 77.4763 38.1948 76.2246C39.8557 76.464 41.5526 76.5906 43.2787 76.5906C44.9157 76.5906 46.5357 76.4743 48.1316 76.2547C48.1271 77.3646 48.2028 78.4759 48.3614 79.5761C48.7156 82.017 49.4825 84.4142 50.6066 86.6248H35.8184C36.7917 84.5096 37.4746 82.2787 37.8545 79.9663ZM71.4039 29.8125C71.4039 30.5239 71.3497 31.2324 71.2447 31.9298H43.4382C43.3331 31.2323 43.2791 30.5239 43.2791 29.8125C43.2791 22.0584 49.5875 15.75 57.3416 15.75C65.0956 15.75 71.4039 22.0584 71.4039 29.8125ZM31.2436 13.0629C31.991 10.4091 33.5141 8.00869 35.6339 6.192C38.1772 4.01269 41.4249 2.8125 44.7789 2.8125C48.1707 2.8125 51.4466 4.03706 54.0028 6.26062C56.0589 8.04919 57.5426 10.3836 58.2896 12.9647C57.9757 12.9472 57.6596 12.9375 57.3414 12.9375C51.4796 12.9375 46.3072 15.9424 43.2811 20.4921C40.5571 16.3935 36.1436 13.6601 31.2436 13.0629ZM77.1226 34.7423C78.1565 34.7423 78.9976 35.5834 78.9976 36.6173C78.9976 37.6511 78.1565 38.4923 77.1226 38.4923H9.4353C8.40143 38.4923 7.5603 37.6511 7.5603 36.6173C7.5603 35.5834 8.40143 34.7423 9.4353 34.7423H77.1226ZM87.7518 6.52406L71.6094 20.8166C71.312 20.3468 70.9923 19.8924 70.6512 19.4554L84.7548 3.52725C85.5447 2.62219 86.9928 2.58244 87.8437 3.43237C88.6934 4.28081 88.6591 5.73037 87.7518 6.52406Z" fill="#161616"/>
</g>
<defs>
<clipPath id="clip0">
<rect width="96" height="96" fill="white"/>
</clipPath>
</defs>
</svg>
