<svg width="108" height="108" viewBox="0 0 108 108" fill="none" xmlns="http://www.w3.org/2000/svg">
<path d="M104.625 75.9373H99.1934L97.8244 70.4656C97.7331 70.1005 97.5225 69.7764 97.2259 69.5448C96.9293 69.3132 96.5638 69.1873 96.1875 69.1873H90.5744L97.9488 55.4911C98.8762 55.7197 99.8416 55.7489 100.781 55.5767C101.721 55.4045 102.613 55.0349 103.399 54.4922C104.185 53.9496 104.847 53.2463 105.341 52.4288C105.835 51.6113 106.15 50.6983 106.265 49.7501C106.38 48.8018 106.293 47.84 106.008 46.9281C105.724 46.0162 105.249 45.175 104.616 44.4602C103.982 43.7454 103.204 43.1731 102.333 42.7813C101.462 42.3895 100.518 42.187 99.5625 42.1873C99.0917 42.1868 98.6222 42.2363 98.1619 42.3349L91.0533 28.0418C90.9542 27.8426 90.8168 27.6649 90.6488 27.519C90.4808 27.3731 90.2856 27.2618 90.0745 27.1916C89.8633 27.1214 89.6404 27.0937 89.4185 27.11C89.1966 27.1263 88.9801 27.1863 88.7815 27.2867L79.6268 31.9104C77.0437 29.7097 73.7265 28.5628 70.3357 28.698C66.945 28.8333 63.7296 30.2408 61.3301 32.6402C61.173 32.7968 61.0484 32.9828 60.9633 33.1876C60.8782 33.3924 60.8343 33.612 60.8341 33.8337C60.8339 34.0555 60.8774 34.2751 60.9622 34.48C61.0469 34.685 61.1712 34.8712 61.328 35.0281L78.0342 51.7343C78.1911 51.8911 78.3773 52.0154 78.5822 52.1001C78.7872 52.1849 79.0068 52.2284 79.2286 52.2282C79.4503 52.228 79.6699 52.1841 79.8747 52.099C80.0794 52.0139 80.2654 51.8892 80.422 51.7322C82.6567 49.4972 84.0363 46.549 84.3204 43.4013C84.6044 40.2536 83.775 37.106 81.9766 34.507L88.7878 31.0645L95.1433 43.8431C94.4257 44.4633 93.8472 45.228 93.4457 46.0873C93.0442 46.9465 92.8287 47.8809 92.8133 48.8292C92.798 49.7775 92.9832 50.7184 93.3567 51.5901C93.7303 52.4619 94.2837 53.245 94.9809 53.888L86.7417 69.1873H79.3125C78.9362 69.1873 78.5707 69.3132 78.2741 69.5448C77.9775 69.7764 77.7669 70.1005 77.6756 70.4656L76.3066 75.9373H45.1934L44.3496 72.5623H56.5312C58.0971 72.5605 59.5984 71.9377 60.7057 70.8305C61.8129 69.7232 62.4358 68.2219 62.4375 66.656V44.7185C62.4358 43.1526 61.8129 41.6513 60.7057 40.5441C59.5984 39.4368 58.0971 38.814 56.5312 38.8123H14.3437C12.7778 38.814 11.2766 39.4368 10.1693 40.5441C9.06205 41.6513 8.43923 43.1526 8.4375 44.7185V66.656C8.43923 68.2219 9.06205 69.7232 10.1693 70.8305C11.2766 71.9377 12.7778 72.5605 14.3437 72.5623H26.5254L25.6816 75.9373H3.375C2.92745 75.9373 2.49822 76.1151 2.18176 76.4315C1.86529 76.748 1.6875 77.1772 1.6875 77.6248V104.625C1.6875 105.072 1.86529 105.502 2.18176 105.818C2.49822 106.134 2.92745 106.312 3.375 106.312H8.4375C8.88505 106.312 9.31427 106.134 9.63074 105.818C9.94721 105.502 10.125 105.072 10.125 104.625V86.0623H97.875V104.625C97.875 105.072 98.0528 105.502 98.3692 105.818C98.6857 106.134 99.1149 106.312 99.5625 106.312H104.625C105.073 106.312 105.502 106.134 105.818 105.818C106.135 105.502 106.312 105.072 106.312 104.625V77.6248C106.312 77.1772 106.135 76.748 105.818 76.4315C105.502 76.1151 105.073 75.9373 104.625 75.9373ZM79.129 48.0556L65.0067 33.9333C66.939 32.5604 69.2917 31.9089 71.6549 32.0924C74.0181 32.2759 76.2421 33.2827 77.9393 34.9374C78.0404 35.0809 78.1636 35.2077 78.3042 35.3128C79.8841 37.0191 80.8285 39.2172 80.9787 41.5378C81.1289 43.8583 80.4757 46.1598 79.129 48.0556ZM99.5625 45.5623C100.23 45.5623 100.883 45.7602 101.438 46.1311C101.993 46.5019 102.425 47.029 102.681 47.6457C102.936 48.2624 103.003 48.941 102.873 49.5957C102.742 50.2504 102.421 50.8518 101.949 51.3238C101.477 51.7958 100.876 52.1172 100.221 52.2474C99.5662 52.3776 98.8876 52.3108 98.2709 52.0554C97.6542 51.7999 97.1271 51.3673 96.7563 50.8123C96.3854 50.2573 96.1875 49.6048 96.1875 48.9373C96.1887 48.0425 96.5446 47.1848 97.1773 46.5521C97.81 45.9194 98.6677 45.5634 99.5625 45.5623ZM80.6309 72.5623H94.8691L95.7129 75.9373H79.7871L80.6309 72.5623ZM11.8125 44.7185C11.8131 44.0474 12.0799 43.4039 12.5545 42.9293C13.0291 42.4547 13.6726 42.1878 14.3437 42.1873H56.5312C57.2024 42.1878 57.8459 42.4547 58.3205 42.9293C58.7951 43.4039 59.0619 44.0474 59.0625 44.7185V64.1248H11.8125V44.7185ZM14.3437 69.1873C13.8209 69.1862 13.3112 69.0235 12.8844 68.7214C12.4577 68.4193 12.1348 67.9926 11.9602 67.4998H58.9148C58.7401 67.9926 58.4173 68.4193 57.9906 68.7214C57.5638 69.0235 57.0541 69.1862 56.5312 69.1873H14.3437ZM41.7129 75.9373H29.1621L30.0059 72.5623H40.8691L41.7129 75.9373ZM6.75 102.937H5.0625V86.0623H6.75V102.937ZM102.937 102.937H101.25V86.0623H102.937V102.937ZM102.937 82.6873H5.0625V79.3123H102.937V82.6873Z" fill="#161616"/>
<path d="M57.375 20.25H54V8.4375C54 7.98995 53.8222 7.56073 53.5057 7.24426C53.1893 6.92779 52.7601 6.75 52.3125 6.75H18.5625C18.1149 6.75 17.6857 6.92779 17.3693 7.24426C17.0528 7.56073 16.875 7.98995 16.875 8.4375V20.25H13.5C13.0524 20.25 12.6232 20.4278 12.3068 20.7443C11.9903 21.0607 11.8125 21.4899 11.8125 21.9375V27C11.8125 27.4476 11.9903 27.8768 12.3068 28.1932C12.6232 28.5097 13.0524 28.6875 13.5 28.6875H15.1875V30.375C15.1875 30.8226 15.3653 31.2518 15.6818 31.5682C15.9982 31.8847 16.4274 32.0625 16.875 32.0625C17.3226 32.0625 17.7518 31.8847 18.0682 31.5682C18.3847 31.2518 18.5625 30.8226 18.5625 30.375V28.6875H52.3125V30.375C52.3125 30.8226 52.4903 31.2518 52.8068 31.5682C53.1232 31.8847 53.5524 32.0625 54 32.0625C54.4476 32.0625 54.8768 31.8847 55.1932 31.5682C55.5097 31.2518 55.6875 30.8226 55.6875 30.375V28.6875H57.375C57.8226 28.6875 58.2518 28.5097 58.5682 28.1932C58.8847 27.8768 59.0625 27.4476 59.0625 27V21.9375C59.0625 21.4899 58.8847 21.0607 58.5682 20.7443C58.2518 20.4278 57.8226 20.25 57.375 20.25ZM47.25 10.125H50.625V20.25H47.25V10.125ZM40.5 10.125H43.875V20.25H40.5V10.125ZM33.75 10.125H37.125V20.25H33.75V10.125ZM27 10.125H30.375V20.25H27V10.125ZM20.25 10.125H23.625V20.25H20.25V10.125ZM55.6875 25.3125H15.1875V23.625H55.6875V25.3125Z" fill="#161616"/>
</svg>
