<svg width="97" height="97" viewBox="0 0 97 97" fill="none" xmlns="http://www.w3.org/2000/svg">
<path d="M69.212 3.36871C68.7761 2.43181 67.9642 1.70582 66.9852 1.37724L63.4433 0.186493C63.0755 0.0629043 62.6929 0.000740051 62.3066 0.000740051C61.2683 0.000740051 60.3158 0.442551 59.655 1.18334C57.7057 0.799255 53.1825 0 49.2809 0C45.3808 0 40.8576 0.799255 38.9076 1.18334C38.2467 0.442551 37.295 0 36.2567 0C35.8712 0 35.4893 0.0621643 35.1215 0.185753L31.5789 1.3765C30.5998 1.70508 29.788 2.43033 29.3521 3.36723C29.1974 3.70026 29.096 4.05252 29.0435 4.41071C28.7771 4.42477 28.5195 4.50987 28.3005 4.6638C25.6422 6.53317 23.2429 8.72224 20.9147 10.9816C10.1514 21.403 5.94647 50.4367 5.15609 56.6568C3.87284 57.0395 2.87525 58.1466 2.68506 59.5282L2.11744 63.6414C1.85398 65.5508 3.19273 67.3188 5.10207 67.5822L19.7099 69.5981C21.5912 69.8571 23.391 68.4954 23.6507 66.6128C23.6507 66.6128 24.2176 62.5018 24.2183 62.4995C24.4048 61.1467 23.761 59.7791 22.6035 59.0568C23.0757 55.8398 24.5832 46.1785 26.7478 38.3273C27.7713 40.8893 29.341 44.318 31.4856 47.6526V55.1708C30.6856 56.964 26.397 66.8229 23.7358 77.9785C23.5538 78.7415 24.0252 79.5081 24.7882 79.6902C25.5512 79.8723 26.3179 79.4008 26.4999 78.6378C28.8992 68.582 32.6512 59.6 33.8309 56.8966H38.8862V94.1582C38.8862 94.1582 25.6844 94.1582 25.6126 94.1582C24.9221 94.1582 24.3715 93.5765 24.3952 92.8949C24.4855 90.2419 24.8037 87.3275 25.3403 84.2341C25.4749 83.4615 24.9569 82.7259 24.1836 82.5912C23.4102 82.458 22.6746 82.9753 22.5406 83.7486C21.9812 86.9701 21.6496 90.0147 21.5549 92.798C21.4779 95.0655 23.3436 97 25.6119 97H71.4854C73.7566 97 75.6208 95.0655 75.5424 92.798C74.9881 76.5287 66.7935 57.7928 65.6109 55.1679V47.6534C67.7556 44.318 69.3259 40.8893 70.3487 38.328C72.5126 46.177 74.0208 55.8398 74.493 59.0576C74.1363 59.2803 73.8173 59.566 73.5553 59.9116C72.9914 60.6561 72.7509 61.5752 72.8789 62.5003C72.8789 62.5003 73.4458 66.6091 73.4465 66.6128C73.7048 68.4829 75.5194 69.8557 77.3873 69.5981L91.9945 67.5822C93.9045 67.3188 95.2433 65.5508 94.9798 63.6414L94.4122 59.5282C94.2213 58.1458 93.2229 57.0387 91.9382 56.6561C91.6762 54.6269 91.0354 50.0763 89.9253 44.5792C87.902 34.5641 85.3695 26.3547 82.3967 20.179C82.0563 19.4715 81.2067 19.174 80.5 19.5144C79.7932 19.8548 79.4957 20.7037 79.8362 21.4112C85.7055 33.6057 88.4097 51.6548 89.0816 56.7353L77.266 58.3656C76.6488 54.1658 74.6647 41.659 71.7896 33.3423C71.5875 32.7576 71.0325 32.3713 70.4123 32.3861C69.7937 32.4017 69.2564 32.8146 69.0825 33.4089C69.0632 33.4747 67.1783 39.8451 63.4152 45.8144H49.9684V41.7085C50.152 41.5583 50.3333 41.4066 50.5131 41.2549C56.6733 36.0405 60.5874 29.8477 63.2412 24.028C65.1609 19.8208 66.5493 15.419 67.8355 10.9846C68.113 10.0255 68.3898 9.06563 68.6895 8.11318C70.9163 9.82714 72.5777 11.4419 73.8521 12.6808C75.0428 13.8375 76.1011 15.0852 77.0328 16.461C77.4732 17.1107 78.3568 17.2802 79.0066 16.8399C79.6563 16.3995 79.8258 15.5167 79.3855 14.8669C78.3464 13.3328 77.1616 11.9326 75.8332 10.6427C74.4293 9.27876 72.3639 7.27322 69.5539 5.20922C69.5946 4.5824 69.4806 3.94669 69.212 3.36871ZM75.8221 61.6285C75.9235 61.4946 76.0752 61.3991 76.2521 61.3747L90.86 59.3588C91.2122 59.3099 91.5482 59.5638 91.5971 59.9168L92.1647 64.03C92.2135 64.3867 91.9634 64.7175 91.6059 64.7671L76.9981 66.783C76.6399 66.8333 76.3098 66.5765 76.2617 66.225C76.2617 66.225 75.6941 62.1118 75.6941 62.111C75.6697 61.9334 75.7207 61.7625 75.8221 61.6285ZM49.2809 2.8418C52.5179 2.8418 56.344 3.45678 58.4413 3.84605C58.3983 3.98148 58.3562 4.12061 58.3132 4.26122C57.2542 7.73798 56.3699 11.2591 55.1118 14.6737C53.5999 18.7803 51.6898 22.7455 49.1499 26.3214C46.6826 23.0141 44.8184 19.2872 43.416 15.4145C42.1017 11.7883 41.2898 8.03474 40.2449 4.33004C40.199 4.16649 40.1531 4.00516 40.1065 3.84901C42.2001 3.45974 46.0365 2.8418 49.2809 2.8418ZM31.9393 4.5713C32.0444 4.34336 32.2353 4.15391 32.484 4.07028C32.484 4.07028 36.014 2.88398 36.0266 2.88028C36.6349 2.67529 36.9161 3.2466 37.0797 3.71284C38.1498 6.75741 38.7078 9.95221 39.6373 13.039C40.8354 17.0204 42.3977 20.9168 44.5224 24.4979C44.7444 24.8724 47.3908 28.6133 47.3553 28.6563C47.077 28.993 43.6092 32.7058 43.5278 32.6052C41.3024 29.8374 39.4501 26.7802 37.9441 23.5662C37.9389 23.5551 37.9344 23.544 37.9285 23.5329C36.6112 20.7155 35.5567 17.7812 34.6679 14.8025C34.6649 14.7907 34.6612 14.7796 34.6575 14.7677C33.7184 11.6321 33.1101 8.35592 31.9067 5.30543C31.8127 5.06861 31.8327 4.80071 31.9393 4.5713ZM21.4032 62.1118L20.8356 66.225C20.7867 66.5765 20.4567 66.8318 20.0985 66.783L5.49059 64.7671C5.13389 64.7175 4.88301 64.3874 4.93259 64.03C4.93259 64.03 5.49873 59.9249 5.50021 59.9168C5.54906 59.5645 5.88652 59.3099 6.23731 59.3588C6.23731 59.3588 20.8444 61.3747 20.8452 61.3747C21.1997 61.4235 21.452 61.758 21.4032 62.1118ZM33.6821 45.8144C29.9189 39.8451 28.034 33.474 28.0148 33.4089C27.8416 32.8154 27.3036 32.4009 26.6857 32.3861C26.0625 32.3669 25.5097 32.7576 25.3077 33.3423C22.4326 41.659 20.4485 54.1658 19.8313 58.3656L8.01639 56.7353C8.87855 50.2362 13.0717 22.5316 22.8914 13.0227C25.0102 10.9668 27.1689 8.97312 29.5711 7.24732H29.5852C29.5881 7.25768 29.5918 7.26804 29.5955 7.2784C30.3334 9.54148 30.8655 11.8675 31.5197 14.155C31.5226 14.1653 31.5256 14.1757 31.5278 14.186C32.9717 19.3198 34.8729 24.2907 37.543 28.9182C37.5437 28.9205 37.5452 28.9227 37.5467 28.9249C38.6634 30.8239 39.9141 32.6481 41.2943 34.3658C40.922 34.7284 40.4935 35.0533 40.1635 35.4551C39.3531 36.4446 38.8862 37.7138 38.8862 38.9948V45.8144H33.6821ZM47.1266 94.1582H41.728V56.8966H47.1266V94.1582ZM72.7021 92.8957C72.725 93.575 72.1618 94.1582 71.4854 94.1582H49.9684V56.8966H63.2657C64.9885 60.8507 72.2018 78.2242 72.7021 92.8957ZM62.7691 48.6562V54.0548H34.3282V48.6562H62.7691ZM66.6566 5.30469C66.2103 6.43771 65.7767 7.88821 65.2904 9.55776C62.7595 18.2519 59.7164 26.7617 53.8604 33.8351C52.011 36.0686 49.9359 38.1134 47.6639 39.9161C47.325 40.1863 47.1266 40.5955 47.1266 41.0292V45.8144H41.728V38.9948C41.728 38.1459 42.1439 37.3252 42.8262 36.822C54.4805 28.2293 58.1253 15.3205 60.3032 7.60773C60.8006 5.84789 61.2298 4.32708 61.6398 3.29471C61.7796 2.94244 62.18 2.76039 62.5375 2.88028C62.5375 2.88028 66.0734 4.0688 66.0801 4.07102C66.5826 4.23975 66.8527 4.80959 66.6566 5.30469Z" fill="#161616"/>
</svg>
