<svg width="137" height="137" viewBox="0 0 137 137" fill="none" xmlns="http://www.w3.org/2000/svg">
<path d="M68.5 102.75C67.9323 102.75 67.3878 102.524 66.9863 102.123C66.5849 101.722 66.3594 101.177 66.3594 100.609V96.3281C66.3594 95.7604 66.5849 95.2159 66.9863 94.8145C67.3878 94.413 67.9323 94.1875 68.5 94.1875C69.0677 94.1875 69.6122 94.413 70.0137 94.8145C70.4151 95.2159 70.6406 95.7604 70.6406 96.3281V100.609C70.6406 101.177 70.4151 101.722 70.0137 102.123C69.6122 102.524 69.0677 102.75 68.5 102.75Z" fill="#D2D2D2"/>
<path d="M118.439 47.0937L132.189 31.3794C132.423 31.112 132.587 30.7906 132.666 30.444C132.745 30.0974 132.736 29.7366 132.641 29.3942C132.545 29.0518 132.366 28.7385 132.12 28.4827C131.873 28.2268 131.566 28.0364 131.228 27.9287L84.1338 12.9443C83.737 12.8182 83.3119 12.8105 82.9108 12.9223C82.5097 13.0341 82.1499 13.2605 81.8755 13.5736L68.5008 28.8577L55.1262 13.5736C54.8523 13.2617 54.4936 13.0361 54.0937 12.9243C53.6939 12.8126 53.2702 12.8195 52.8743 12.9443L5.78051 27.9287C5.44178 28.0364 5.13521 28.2268 4.88847 28.4827C4.64173 28.7385 4.46259 29.0518 4.36722 29.3942C4.27184 29.7366 4.26324 30.0974 4.34217 30.444C4.42111 30.7906 4.58511 31.112 4.81937 31.3794L18.5622 47.0937L4.81295 62.808C4.57878 63.0758 4.41503 63.3977 4.3365 63.7446C4.25798 64.0916 4.26715 64.4526 4.36318 64.7951C4.45922 65.1376 4.6391 65.4508 4.88656 65.7063C5.13402 65.9619 5.44126 66.1517 5.78051 66.2587L19.2664 70.5528V113.453C19.2663 113.892 19.4014 114.321 19.6534 114.681C19.9054 115.041 20.2621 115.315 20.675 115.465L67.7687 132.59C67.7844 132.589 67.8001 132.589 67.8158 132.59C68.2585 132.75 68.7431 132.75 69.1858 132.59C69.2015 132.589 69.2172 132.589 69.2329 132.59L116.327 115.465C116.74 115.315 117.096 115.041 117.348 114.681C117.6 114.321 117.735 113.892 117.735 113.453V70.5528L131.221 66.2587C131.56 66.151 131.866 65.9606 132.113 65.7047C132.36 65.4488 132.539 65.1356 132.634 64.7932C132.73 64.4507 132.738 64.09 132.659 63.7434C132.581 63.3968 132.417 63.0754 132.182 62.808L118.439 47.0937ZM68.5008 59.8304L28.4711 47.0937L66.3602 35.0377V53.5156C66.3602 54.0833 66.5857 54.6278 66.9872 55.0292C67.3886 55.4307 67.9331 55.6562 68.5008 55.6562C69.0686 55.6562 69.613 55.4307 70.0145 55.0292C70.4159 54.6278 70.6414 54.0833 70.6414 53.5156V35.0377L108.531 47.0937L68.5008 59.8304ZM84.1723 17.446L126.816 31.0176L114.907 44.6298L72.264 31.0604L84.1723 17.446ZM52.8293 17.446L64.7376 31.0583L22.0942 44.6298L10.1859 31.0176L52.8293 17.446ZM22.0942 49.5554L64.7376 63.127L52.8293 76.7392L10.1859 63.1698L22.0942 49.5554ZM113.454 111.955L70.6414 127.521V109.172C70.6414 108.604 70.4159 108.06 70.0145 107.658C69.613 107.257 69.0686 107.031 68.5008 107.031C67.9331 107.031 67.3886 107.257 66.9872 107.658C66.5857 108.06 66.3602 108.604 66.3602 109.172V127.521L23.5477 111.955V71.9249L52.8743 81.2538C53.0824 81.3167 53.299 81.3471 53.5164 81.3437C53.8213 81.3436 54.1226 81.2785 54.4002 81.1526C54.6778 81.0267 54.9253 80.843 55.1262 80.6137L66.3602 67.77V87.7656C66.3602 88.3333 66.5857 88.8778 66.9872 89.2792C67.3886 89.6807 67.9331 89.9062 68.5008 89.9062C69.0686 89.9062 69.613 89.6807 70.0145 89.2792C70.4159 88.8778 70.6414 88.3333 70.6414 87.7656V67.7743L81.8755 80.618C82.0767 80.8465 82.3244 81.0294 82.602 81.1546C82.8796 81.2797 83.1807 81.3442 83.4852 81.3437C83.7032 81.3435 83.9198 81.3095 84.1274 81.2431L113.454 71.9249V111.955ZM84.1723 76.7392L72.264 63.127L114.907 49.5575L126.816 63.1698L84.1723 76.7392Z" fill="#D2D2D2"/>
</svg>
