<svg width="148" height="148" viewBox="0 0 148 148" fill="none" xmlns="http://www.w3.org/2000/svg">
<path d="M137.639 66.8785L133.807 51.5481C134.855 51.3255 135.641 50.3959 135.641 49.2821V46.8103C135.641 41.4436 131.275 37.0776 125.908 37.0776H108.451V31.9791C108.451 29.3383 106.303 27.1899 103.662 27.1899H14.6763C12.0354 27.1899 9.88709 29.3383 9.88709 31.9791V74.0001C9.88709 75.2798 10.9245 76.3176 12.2045 76.3176C13.4842 76.3176 14.5219 75.2801 14.5219 74.0001V31.9791C14.5219 31.8939 14.591 31.8248 14.6763 31.8248H103.662C103.747 31.8248 103.816 31.8939 103.816 31.9791V74.0007C103.816 75.2804 104.853 76.3181 106.133 76.3181C107.413 76.3181 108.451 75.2807 108.451 74.0007V71.3737H135.787C135.789 71.3737 135.791 71.3743 135.793 71.3743C135.795 71.3743 135.798 71.374 135.8 71.374C139.163 71.3763 142.02 73.5842 143.001 76.6266H135.795C134.515 76.6266 133.478 77.664 133.478 78.944V83.8875C133.478 87.8913 136.735 91.1485 140.738 91.1485H143.365V101.345H137.306C135.315 95.5971 129.852 91.4572 123.436 91.4572C117.02 91.4572 111.556 95.5971 109.566 101.345H108.45V83.8872C108.45 82.6076 107.413 81.5698 106.133 81.5698C104.853 81.5698 103.815 82.6073 103.815 83.8872V101.344H55.7362C53.7457 95.5966 48.2821 91.4566 41.8664 91.4566C35.4506 91.4566 29.9868 95.5966 27.9966 101.344H14.6763C14.591 101.344 14.5219 101.275 14.5219 101.19V96.0915H24.5637C25.8433 96.0915 26.8811 95.054 26.8811 93.774C26.8811 92.4941 25.8436 91.4566 24.5637 91.4566H2.31741C1.03773 91.4566 0 92.4941 0 93.774C0 95.054 1.03745 96.0915 2.31741 96.0915H9.88738V101.19C9.88738 103.831 12.0357 105.979 14.6766 105.979H27.1941C27.1936 106.03 27.1901 106.081 27.1901 106.133C27.1901 114.226 33.7741 120.809 41.8664 120.809C49.9587 120.809 56.5426 114.226 56.5426 106.133C56.5426 106.081 56.5392 106.03 56.5386 105.979H108.764C108.763 106.03 108.759 106.081 108.759 106.133C108.759 114.226 115.343 120.809 123.436 120.809C131.528 120.809 138.112 114.226 138.112 106.133C138.112 106.081 138.109 106.03 138.108 105.979H145.682C146.962 105.979 148 104.941 148 103.661V78.9434C148 72.8407 143.497 67.7703 137.639 66.8785ZM108.451 41.7122H125.908C128.719 41.7122 131.006 43.9992 131.006 46.8103V46.9647H108.451V41.7122ZM108.451 66.7392V51.5992H129.042L132.827 66.7392H108.451ZM41.8664 116.176C36.3294 116.176 31.8246 111.671 31.8246 106.134C31.8246 100.596 36.3294 96.092 41.8664 96.092C47.4034 96.092 51.9081 100.596 51.9081 106.134C51.9081 111.671 47.4034 116.176 41.8664 116.176ZM123.436 116.176C117.899 116.176 113.395 111.671 113.395 106.134C113.395 100.596 117.899 96.092 123.436 96.092C128.973 96.092 133.478 100.596 133.478 106.134C133.478 111.671 128.973 116.176 123.436 116.176ZM143.365 86.5137H140.739C139.291 86.5137 138.113 85.3354 138.113 83.8872V81.2608H143.365V86.5137H143.365Z" fill="#D2D2D2"/>
<path d="M41.8666 101.344C39.2257 101.344 37.0774 103.493 37.0774 106.133C37.0774 108.774 39.2257 110.923 41.8666 110.923C44.5075 110.923 46.6558 108.774 46.6558 106.133C46.6558 103.493 44.5075 101.344 41.8666 101.344Z" fill="#D2D2D2"/>
<path d="M123.436 101.344C120.795 101.344 118.647 103.493 118.647 106.133C118.647 108.774 120.795 110.923 123.436 110.923C126.077 110.923 128.225 108.774 128.225 106.133C128.225 103.493 126.077 101.344 123.436 101.344Z" fill="#D2D2D2"/>
<path d="M96.2465 91.4575H61.6411C60.3615 91.4575 59.3237 92.495 59.3237 93.7749C59.3237 95.0549 60.3612 96.0923 61.6411 96.0923H96.2465C97.5262 96.0923 98.564 95.0549 98.564 93.7749C98.564 92.495 97.5265 91.4575 96.2465 91.4575Z" fill="#D2D2D2"/>
<path d="M36.9231 81.5698H7.26126C5.98158 81.5698 4.94385 82.6073 4.94385 83.8872C4.94385 85.1672 5.98129 86.2047 7.26126 86.2047H36.9231C38.2028 86.2047 39.2405 85.1672 39.2405 83.8872C39.2405 82.6073 38.2028 81.5698 36.9231 81.5698Z" fill="#D2D2D2"/>
<path d="M80.5821 50.1151C79.6773 49.2103 78.2097 49.2103 77.305 50.1154L56.6971 70.7229L45.9766 60.0024C45.0716 59.0974 43.6043 59.0974 42.6995 60.0024C41.7945 60.9075 41.7945 62.3745 42.6995 63.2795L55.0587 75.6387C55.5111 76.0914 56.1042 76.3174 56.6971 76.3174C57.29 76.3174 57.8834 76.0914 58.3355 75.6387L80.5818 53.3924C81.4868 52.4871 81.4868 51.0201 80.5821 50.1151Z" fill="#D2D2D2"/>
</svg>
